HIERARCHY
ROOT Hips
{
	OFFSET 0.00000 0.00000 0.00000
	CHANNELS 6 Xposition Yposition Zposition Zrotation Yrotation Xrotation 
	JOINT LHipJoint
	{
		OFFSET 0 0 0
		CHANNELS 3 Zrotation Yrotation Xrotation
		JOINT LeftUpLeg
		{
			OFFSET 1.92105 -1.55469 0.57908
			CHANNELS 3 Zrotation Yrotation Xrotation
			JOINT LeftLeg
			{
				OFFSET 2.22936 -6.12512 0.00000
				CHANNELS 3 Zrotation Yrotation Xrotation
				JOINT LeftFoot
				{
					OFFSET 2.39380 -6.57693 0.00000
					CHANNELS 3 Zrotation Yrotation Xrotation
					JOINT LeftToeBase
					{
						OFFSET 0.18279 -0.50221 1.84518
						CHANNELS 3 Zrotation Yrotation Xrotation
						End Site
						{
							OFFSET 0.00000 -0.00000 0.96438
						}
					}
				}
			}
		}
	}
	JOINT RHipJoint
	{
		OFFSET 0 0 0
		CHANNELS 3 Zrotation Yrotation Xrotation
		JOINT RightUpLeg
		{
			OFFSET -1.89358 -1.55469 0.57908
			CHANNELS 3 Zrotation Yrotation Xrotation
			JOINT RightLeg
			{
				OFFSET -2.33387 -6.41225 0.00000
				CHANNELS 3 Zrotation Yrotation Xrotation
				JOINT RightFoot
				{
					OFFSET -2.38966 -6.56553 0.00000
					CHANNELS 3 Zrotation Yrotation Xrotation
					JOINT RightToeBase
					{
						OFFSET -0.18298 -0.50273 1.96046
						CHANNELS 3 Zrotation Yrotation Xrotation
						End Site
						{
							OFFSET -0.00000 -0.00000 1.01970
						}
					}
				}
			}
		}
	}
	JOINT LowerBack
	{
		OFFSET 0 0 0
		CHANNELS 3 Zrotation Yrotation Xrotation
		JOINT Spine
		{
			OFFSET 0.03719 2.01033 -0.18318
			CHANNELS 3 Zrotation Yrotation Xrotation
			JOINT Spine1
			{
				OFFSET 0.00561 1.99379 0.09854
				CHANNELS 3 Zrotation Yrotation Xrotation
				JOINT Neck
				{
					OFFSET 0 0 0
					CHANNELS 3 Zrotation Yrotation Xrotation
					JOINT Neck1
					{
						OFFSET -0.16458 1.70299 0.07694
						CHANNELS 3 Zrotation Yrotation Xrotation
						JOINT Head
						{
							OFFSET 0.23603 1.70483 -0.17696
							CHANNELS 3 Zrotation Yrotation Xrotation
							End Site
							{
								OFFSET 0.09691 1.73862 -0.07054
							}
						}
					}
				}
				JOINT LeftShoulder
				{
					OFFSET 0 0 0
					CHANNELS 3 Zrotation Yrotation Xrotation
					JOINT LeftArm
					{
						OFFSET 2.95817 1.35820 -0.02124
						CHANNELS 3 Zrotation Yrotation Xrotation
						JOINT LeftForeArm
						{
							OFFSET 4.84834 -0.00000 0.00000
							CHANNELS 3 Zrotation Yrotation Xrotation
							JOINT LeftHand
							{
								OFFSET 2.99713 -0.00000 0.00000
								CHANNELS 3 Zrotation Yrotation Xrotation
								JOINT LeftFingerBase
								{
									OFFSET 0 0 0
									CHANNELS 3 Zrotation Yrotation Xrotation
									JOINT LeftHandIndex1
									{
										OFFSET 0.69399 -0.00000 0.00000
										CHANNELS 3 Zrotation Yrotation Xrotation
										End Site
										{
											OFFSET 0.55951 -0.00000 0.00000
										}
									}
								}
								JOINT LThumb
								{
									OFFSET 0 0 0
									CHANNELS 3 Zrotation Yrotation Xrotation
									End Site
									{
										OFFSET 0.56805 -0.00000 0.56805
									}
								}
							}
						}
					}
				}
				JOINT RightShoulder
				{
					OFFSET 0 0 0
					CHANNELS 3 Zrotation Yrotation Xrotation
					JOINT RightArm
					{
						OFFSET -3.02016 1.39593 0.16199
						CHANNELS 3 Zrotation Yrotation Xrotation
						JOINT RightForeArm
						{
							OFFSET -4.93457 -0.00000 0.00000
							CHANNELS 3 Zrotation Yrotation Xrotation
							JOINT RightHand
							{
								OFFSET -3.34430 -0.00000 0.00000
								CHANNELS 3 Zrotation Yrotation Xrotation
								JOINT RightFingerBase
								{
									OFFSET 0 0 0
									CHANNELS 3 Zrotation Yrotation Xrotation
									JOINT RightHandIndex1
									{
										OFFSET -0.67736 -0.00000 0.00000
										CHANNELS 3 Zrotation Yrotation Xrotation
										End Site
										{
											OFFSET -0.54611 -0.00000 0.00000
										}
									}
								}
								JOINT RThumb
								{
									OFFSET 0 0 0
									CHANNELS 3 Zrotation Yrotation Xrotation
									End Site
									{
										OFFSET -0.55445 -0.00000 0.55445
									}
								}
							}
						}
					}
				}
			}
		}
	}
}
MOTION
Frames: 8
Frame Time: .0083333
-4.6568 15.782 0.2543 0 0 0 0 0 0 -21 0 0 0 0 0 0 0 0 0 0 0 0 0 0 21 0 0 0 0 0 0 0 0 0 0 0 0 0 0 0 0 0 0 0 0 0 0 -16 0 0 21 0 0 11 0 0 0 -8 0 0 0 0 0 0 0 0 0 0 0 0 0 0 0 0 0 0 0 0 8 0 0 0 0 0 0 0 0 0 0 0 0 0 0 0 0 0
-4.6568 15.7820 0.2543 23.0779 -82.2316 -24.1504 0.0000 0.0000 0.0000 -16.9641 7.0084 0.3243 12.6750 18.6616 68.1129 0.6957 6.8085 14.9189 3.3643 -11.2626 -33.1709 0.0000 0.0000 0.0000 22.6860 -2.3824 -8.2266 -12.7087 -18.6744 68.2183 0.0357 -11.9066 7.8424 -0.8179 -5.7707 16.1206 0.6439 0.2584 2.6276 -0.5042 0.0556 -9.9131 -0.8862 -0.1905 -12.1209 -13.5463 1.2066 -1.2548 9.1799 -0.9191 33.4418 5.6289 -1.7250 11.0121 0.0000 0.0000 0.0000 68.1854 -51.2578 -97.4141 16.6229 -26.3579 -3.9184 -0.0000 -0.0000 27.7709 -4.4842 17.7121 -1.3668 -7.1250 0.0000 -0.0000 -29.8788 45.3547 -0.2879 0.0000 0.0000 0.0000 -79.5036 50.1289 -114.7136 -17.1775 27.0912 -4.1678 0.0000 0.0000 19.6298 14.3146 17.4965 4.3869 7.1250 -0.0000 -0.0000 26.9099 -13.0769 22.8657
-4.9595 15.7931 0.2819 30.2663 -81.4238 -32.6613 0.0000 0.0000 0.0000 -18.2416 7.5178 1.3153 12.6314 18.6450 67.9765 0.6459 6.8742 14.3997 3.1991 -11.0106 -32.3158 0.0000 0.0000 0.0000 20.8696 -3.0940 -7.9408 -13.4269 -18.9309 70.4465 -0.2041 -16.7740 13.7161 -1.0107 -6.3967 17.9398 -0.5070 0.3252 3.0691 -0.9071 0.0276 -9.5495 -0.6772 -0.1068 -11.9746 -13.4123 1.1615 -1.4512 9.0726 -0.9578 33.7201 5.5752 -1.7475 11.1686 0.0000 -0.0000 0.0000 68.8777 -50.9355 -98.7847 16.7492 -26.5260 -3.9747 -0.0000 -0.0000 27.9832 -5.1976 18.0209 -1.6120 -7.1250 0.0000 -0.0000 -30.6322 45.5347 -0.4470 0.0000 -0.0000 0.0000 -79.6245 49.6530 -114.8084 -17.3017 27.2538 -4.2246 0.0000 0.0000 19.6426 14.2878 16.9436 4.2446 7.1250 -0.0000 -0.0000 26.9808 -13.5848 22.6109
-5.2463 15.8073 0.2934 26.4597 -81.7368 -29.5478 0.0000 0.0000 0.0000 -17.2239 7.7785 0.9005 13.0184 18.7888 69.1827 0.5688 5.9532 13.4645 3.2038 -11.0179 -32.3404 0.0000 0.0000 0.0000 21.6042 -2.8946 -8.1468 -13.9430 -19.0966 72.0302 -0.4121 -21.8982 18.3798 -0.9587 -6.2347 17.4670 0.1198 0.3510 3.0714 -0.7212 0.1461 -9.4771 -0.8424 -0.0942 -11.8880 -13.6464 1.1761 -1.4958 8.9980 -0.9081 34.0064 5.6050 -1.7808 11.2909 0.0000 0.0000 0.0000 68.8478 -50.7708 -99.5527 17.0272 -26.8937 -4.0996 -0.0000 -0.0000 27.9777 -5.7840 18.0791 -1.8005 -7.1250 0.0000 -0.0000 -31.1544 45.5114 -0.4365 0.0000 0.0000 0.0000 -80.4984 49.2560 -116.4776 -17.1497 27.0547 -4.1552 0.0000 0.0000 20.4344 15.0713 17.2410 4.5633 7.1250 -0.0000 -0.0000 27.3767 -13.2750 23.2502
-5.5135 15.8146 0.2929 16.5533 -82.4039 -19.9324 0.0000 0.0000 0.0000 -15.0553 7.9089 -0.2676 13.4590 18.9417 70.5452 0.5019 5.0471 12.6144 2.8026 -10.3684 -30.1783 0.0000 0.0000 0.0000 23.5324 -2.1837 -8.6770 -14.4667 -19.2495 73.6249 -0.3906 -25.4986 20.4379 -0.7249 -5.4403 15.1688 1.7617 0.5429 2.7509 -0.7538 0.5466 -9.4742 -1.8452 -0.0542 -11.6687 -14.7768 1.1130 -2.6260 10.4853 -1.1556 34.7517 6.4358 -1.8875 11.8480 -0.0000 0.0000 0.0000 70.0953 -50.7773 -100.7291 17.4605 -27.4608 -4.2975 -0.0000 -0.0000 27.5572 -5.9174 18.0923 -1.8436 -7.1250 0.0000 -0.0000 -31.2731 45.5060 -0.4339 -0.0000 0.0000 0.0000 -79.7373 48.6377 -116.9138 -17.0367 26.9062 -4.1039 0.0000 0.0000 21.1341 15.6766 17.8185 4.9084 7.1250 -0.0000 -0.0000 27.6231 -12.7146 23.9018
-5.7694 15.8062 0.2937 11.0472 -82.6530 -14.8201 0.0000 0.0000 0.0000 -13.6927 8.1049 -1.4260 13.9249 19.0911 71.9749 0.4354 4.1196 11.7369 2.4477 -9.7422 -28.1457 0.0000 0.0000 0.0000 24.5029 -1.7409 -9.1378 -15.0220 -19.3952 75.3029 -0.2811 -26.3674 20.3403 -0.6378 -5.1097 14.2217 2.4011 0.8659 2.3496 -1.0941 1.0151 -9.0743 -2.6167 0.1205 -10.9307 -11.1741 0.2331 -2.3277 8.4958 -2.2931 33.8442 4.8422 -2.1153 11.5507 0.0000 0.0000 0.0000 72.9160 -50.0540 -103.3444 17.6792 -27.7445 -4.3989 -0.0000 -0.0000 27.5510 -6.3761 18.4512 -2.0255 -7.1250 0.0000 -0.0000 -31.8402 45.7570 -0.6631 0.0000 0.0000 0.0000 -78.1430 47.2962 -116.0790 -17.1090 27.0013 -4.1367 0.0000 0.0000 21.2527 16.2775 17.7670 5.0917 7.1250 -0.0000 -0.0000 27.9637 -12.7274 24.2826
-6.0293 15.7960 0.2962 12.2514 -82.6345 -16.7392 0.0000 0.0000 0.0000 -13.4426 8.3731 -2.0918 14.3158 19.2070 73.1667 0.3482 2.8283 10.5304 3.3307 -11.2121 -32.9986 0.0000 0.0000 0.0000 24.3330 -1.7663 -9.3967 -15.6317 -19.5362 77.1323 -0.1223 -25.6215 18.8706 -0.8116 -5.7489 16.0576 2.1974 0.7827 2.6896 -0.9909 0.9013 -9.1659 -2.3858 0.0812 -11.2530 -11.8656 0.4471 -1.1585 8.6802 -2.0230 32.9436 5.0205 -2.0522 10.9311 0.0000 -0.0000 0.0000 73.0058 -49.8896 -104.3973 17.5422 -27.5670 -4.3353 -0.0000 -0.0000 28.5251 -6.6475 18.5636 -2.1249 -7.1250 0.0000 -0.0000 -32.1256 45.8188 -0.7250 0.0000 -0.0000 0.0000 -78.5540 47.1210 -115.8329 -17.2237 27.1518 -4.1889 0.0000 0.0000 20.2946 16.8122 17.3422 5.1464 7.1250 -0.0000 -0.0000 28.3278 -13.0824 24.4568
-6.3027 15.7948 0.3013 15.7891 -82.5256 -21.2777 0.0000 0.0000 0.0000 -13.7451 8.6631 -2.1825 14.5903 19.2834 73.9993 0.3162 1.5941 10.1844 3.2747 -11.1269 -32.7092 0.0000 0.0000 0.0000 23.7247 -1.9760 -9.4080 -16.2400 -19.6576 78.9460 0.0850 -24.6237 16.8032 -1.2793 -7.1680 20.2139 1.9756 1.0795 3.1119 -1.5635 1.2609 -8.7641 -2.9264 0.2619 -11.0233 -11.4533 0.0992 -1.9943 8.8489 -2.5399 33.3503 4.9860 -2.2105 11.3191 -0.0000 0.0000 0.0000 74.6988 -49.6136 -106.7237 17.6276 -27.6776 -4.3749 -0.0000 -0.0000 28.7455 -6.3835 18.9774 -2.0836 -7.1250 0.0000 -0.0000 -32.1199 46.2078 -1.0678 -0.0000 0.0000 0.0000 -77.0694 45.8845 -113.9771 -17.2629 27.2030 -4.2068 0.0000 0.0000 19.1379 17.1712 17.0987 5.1912 7.1250 -0.0000 -0.0000 28.5659 -13.2811 24.5921
